<svg width="512" height="512" viewBox="0 0 512 512" fill="none" xmlns="http://www.w3.org/2000/svg">
<g clip-path="url(#clip0)">
<path d="M223.12 460.4L174.32 446.24C169.2 444.8 166.32 439.44 167.76 434.32L276.96 58.16C278.4 53.04 283.76 50.16 288.88 51.6L337.68 65.76C342.8 67.2 345.68 72.56 344.24 77.68L235.04 453.84C233.52 458.96 228.24 461.92 223.12 460.4V460.4ZM131.92 370.64L166.72 333.52C170.4 329.6 170.16 323.36 166.08 319.76L93.6 256L166.08 192.24C170.16 188.64 170.48 182.4 166.72 178.48L131.92 141.36C128.32 137.52 122.24 137.28 118.32 140.96L3.03998 248.96C-1.04002 252.72 -1.04002 259.2 3.03998 262.96L118.32 371.04C122.24 374.72 128.32 374.56 131.92 370.64V370.64ZM393.68 371.12L508.96 263.04C513.04 259.28 513.04 252.8 508.96 249.04L393.68 140.88C389.84 137.28 383.76 137.44 380.08 141.28L345.28 178.4C341.6 182.32 341.84 188.56 345.92 192.16L418.4 256L345.92 319.76C341.84 323.36 341.52 329.6 345.28 333.52L380.08 370.64C383.68 374.56 389.76 374.72 393.68 371.12V371.12Z" fill="#4438CA"/>
</g>
<defs>
<clipPath id="clip0">
<rect width="512" height="512" fill="white"/>
</clipPath>
</defs>
</svg>
