<svg width="576" height="177" viewBox="0 0 576 177" fill="none" xmlns="http://www.w3.org/2000/svg">
<g clip-path="url(#clip0)">
<path d="M23.5642 71.818V67.0885L8.79671 61.3939L7.51783 60.9596L8.79671 60.5494L23.5642 54.7582V50.0288L3.10207 59.1498V62.6728L23.5642 71.818ZM32.8541 86.5854H37.3182V74.0379C37.6399 74.3918 37.9857 74.7216 38.3557 75.0272C38.7257 75.3168 39.1198 75.5822 39.5381 75.8235C40.2298 76.2096 41.002 76.5072 41.8546 76.7163C42.7232 76.9255 43.6563 77.03 44.6536 77.03C46.2944 77.03 47.7503 76.6922 49.0211 76.0166C50.308 75.3409 51.3858 74.4079 52.2545 73.2175C53.1232 72.0271 53.7827 70.6276 54.2332 69.0189C54.6836 67.3942 54.9088 65.6488 54.9088 63.7827V63.276C54.9088 61.3296 54.6836 59.5439 54.2332 57.9192C53.7827 56.2784 53.1232 54.8708 52.2545 53.6965C51.3858 52.5222 50.308 51.6052 49.0211 50.9457C47.7342 50.2861 46.2542 49.9564 44.5812 49.9564C43.6321 49.9564 42.7393 50.0609 41.9028 50.27C41.0824 50.4631 40.3344 50.7526 39.6587 51.1387C39.1762 51.3961 38.7257 51.7098 38.3075 52.0798C37.8892 52.4337 37.5032 52.8359 37.1492 53.2863L36.9321 50.439H32.8541V86.5854ZM50.4448 63.276V63.7827C50.4448 65.0536 50.3 66.2681 50.0104 67.4264C49.737 68.5846 49.3107 69.6061 48.7316 70.4908C48.1524 71.3756 47.4125 72.0834 46.5116 72.6143C45.6108 73.129 44.541 73.3864 43.3024 73.3864C42.5302 73.3864 41.8224 73.2899 41.1789 73.0969C40.5516 72.9038 39.9805 72.6384 39.4657 72.3006C39.0153 72.011 38.6131 71.6571 38.2592 71.2389C37.9053 70.8206 37.5916 70.3702 37.3182 69.8876V57.316C37.6238 56.769 37.9777 56.2703 38.3799 55.8199C38.782 55.3695 39.2405 54.9915 39.7553 54.6858C40.2218 54.3802 40.7446 54.1469 41.3237 53.986C41.9189 53.8252 42.5624 53.7447 43.2541 53.7447C44.5088 53.7447 45.5866 54.0021 46.4875 54.5169C47.3883 55.0317 48.1364 55.7234 48.7316 56.5921C49.3107 57.4768 49.737 58.4983 50.0104 59.6565C50.3 60.7987 50.4448 62.0052 50.4448 63.276ZM62.6545 71.7938L83.9611 62.6486V59.1257L62.6545 50.0046V54.6134L78.2665 60.4046L79.7143 60.863L78.2665 61.2732L62.6545 67.1609V71.7938ZM439.08 71.818V67.0885L424.312 61.3939L423.033 60.9596L424.312 60.5494L439.08 54.7582V50.0288L418.618 59.1498V62.6728L439.08 71.818ZM454.281 79.5637L468.928 41.4144H464.947L450.276 79.5637H454.281ZM478.049 86.5854H482.513V74.0379C482.835 74.3918 483.181 74.7216 483.551 75.0272C483.921 75.3168 484.315 75.5822 484.733 75.8235C485.425 76.2096 486.197 76.5072 487.05 76.7163C487.918 76.9255 488.851 77.03 489.849 77.03C491.49 77.03 492.945 76.6922 494.216 76.0166C495.503 75.3409 496.581 74.4079 497.45 73.2175C498.318 72.0271 498.978 70.6276 499.428 69.0189C499.879 67.3942 500.104 65.6488 500.104 63.7827V63.276C500.104 61.3296 499.879 59.5439 499.428 57.9192C498.978 56.2784 498.318 54.8708 497.45 53.6965C496.581 52.5222 495.503 51.6052 494.216 50.9457C492.929 50.2861 491.449 49.9564 489.776 49.9564C488.827 49.9564 487.935 50.0609 487.098 50.27C486.278 50.4631 485.53 50.7526 484.854 51.1387C484.371 51.3961 483.921 51.7098 483.503 52.0798C483.084 52.4337 482.698 52.8359 482.344 53.2863L482.127 50.439H478.049V86.5854ZM495.64 63.276V63.7827C495.64 65.0536 495.495 66.2681 495.206 67.4264C494.932 68.5846 494.506 69.6061 493.927 70.4908C493.348 71.3756 492.608 72.0834 491.707 72.6143C490.806 73.129 489.736 73.3864 488.498 73.3864C487.725 73.3864 487.018 73.2899 486.374 73.0969C485.747 72.9038 485.176 72.6384 484.661 72.3006C484.21 72.011 483.808 71.6571 483.454 71.2389C483.101 70.8206 482.787 70.3702 482.513 69.8876V57.316C482.819 56.769 483.173 56.2703 483.575 55.8199C483.977 55.3695 484.436 54.9915 484.95 54.6858C485.417 54.3802 485.94 54.1469 486.519 53.986C487.114 53.8252 487.758 53.7447 488.449 53.7447C489.704 53.7447 490.782 54.0021 491.683 54.5169C492.584 55.0317 493.332 55.7234 493.927 56.5921C494.506 57.4768 494.932 58.4983 495.206 59.6565C495.495 60.7987 495.64 62.0052 495.64 63.276ZM507.85 71.7938L529.156 62.6486V59.1257L507.85 50.0046V54.6134L523.462 60.4046L524.909 60.863L523.462 61.2732L507.85 67.1609V71.7938Z" fill="#4438CA"/>
<path d="M114.268 76.5474V41.4144H110.045V56.5197H95.6399V41.4144H91.4413V76.5474H95.6399V60.3081H110.045V76.5474H114.268ZM133.451 77.03C135.993 77.03 138.125 76.5233 139.846 75.5098C141.583 74.4803 142.886 73.306 143.755 71.9869L141.028 69.8635C140.208 70.9252 139.178 71.7778 137.94 72.4212C136.701 73.0647 135.285 73.3864 133.693 73.3864C132.486 73.3864 131.384 73.1612 130.387 72.7108C129.39 72.2604 128.537 71.641 127.829 70.8528C127.137 70.1128 126.59 69.2602 126.188 68.295C125.802 67.3298 125.553 66.2118 125.44 64.941V64.7721H144.093V62.7693C144.093 60.9515 143.859 59.2624 143.393 57.702C142.942 56.1416 142.251 54.7823 141.318 53.6241C140.385 52.4819 139.21 51.5891 137.795 50.9457C136.395 50.2861 134.754 49.9564 132.872 49.9564C131.376 49.9564 129.912 50.262 128.481 50.8733C127.065 51.4846 125.802 52.3613 124.692 53.5034C123.566 54.6617 122.665 56.0773 121.99 57.7503C121.314 59.4072 120.976 61.2893 120.976 63.3967V64.4101C120.976 66.2279 121.282 67.9089 121.893 69.4533C122.504 70.9976 123.357 72.3327 124.451 73.4588C125.545 74.5849 126.856 75.4616 128.384 76.089C129.928 76.7163 131.617 77.03 133.451 77.03ZM132.872 53.6241C134.014 53.6241 134.996 53.8332 135.816 54.2515C136.653 54.6697 137.344 55.2167 137.891 55.8923C138.438 56.5679 138.864 57.3723 139.17 58.3053C139.476 59.2222 139.629 60.0828 139.629 60.8872V61.1043H125.585C125.762 59.8978 126.068 58.8361 126.502 57.9192C126.952 56.9862 127.499 56.1979 128.143 55.5545C128.786 54.9271 129.51 54.4526 130.314 54.1308C131.119 53.793 131.971 53.6241 132.872 53.6241ZM152.297 39.484V43.3689H161.177V72.6867H152.297V76.5474H174.158V72.6867H165.641V39.484H152.297ZM181.976 39.484V43.3689H190.856V72.6867H181.976V76.5474H203.838V72.6867H195.32V39.484H181.976ZM209.702 63.2519V63.7827C209.702 65.6649 209.975 67.4103 210.522 69.0189C211.069 70.6276 211.857 72.0271 212.887 73.2175C213.9 74.4079 215.139 75.3409 216.603 76.0166C218.083 76.6922 219.748 77.03 221.598 77.03C223.431 77.03 225.08 76.6922 226.544 76.0166C228.008 75.3409 229.255 74.4079 230.284 73.2175C231.298 72.0271 232.078 70.6276 232.625 69.0189C233.172 67.4103 233.445 65.6649 233.445 63.7827V63.2519C233.445 61.3698 233.172 59.6244 232.625 58.0157C232.078 56.391 231.298 54.9834 230.284 53.793C229.255 52.6026 228 51.6696 226.52 50.9939C225.056 50.3022 223.399 49.9564 221.549 49.9564C219.715 49.9564 218.067 50.3022 216.603 50.9939C215.139 51.6696 213.9 52.6026 212.887 53.793C211.857 54.9834 211.069 56.391 210.522 58.0157C209.975 59.6244 209.702 61.3698 209.702 63.2519ZM214.166 63.7827V63.2519C214.166 61.9811 214.318 60.7665 214.624 59.6083C214.93 58.434 215.396 57.4044 216.024 56.5197C216.635 55.6349 217.399 54.9351 218.316 54.4204C219.233 53.8895 220.311 53.6241 221.549 53.6241C222.788 53.6241 223.866 53.8895 224.783 54.4204C225.716 54.9351 226.496 55.6349 227.123 56.5197C227.735 57.4044 228.193 58.434 228.499 59.6083C228.82 60.7665 228.981 61.9811 228.981 63.2519V63.7827C228.981 65.0697 228.828 66.3003 228.523 67.4746C228.217 68.6328 227.759 69.6543 227.147 70.5391C226.52 71.4239 225.74 72.1236 224.807 72.6384C223.89 73.1532 222.82 73.4105 221.598 73.4105C220.359 73.4105 219.273 73.1532 218.34 72.6384C217.407 72.1236 216.635 71.4239 216.024 70.5391C215.396 69.6543 214.93 68.6328 214.624 67.4746C214.318 66.3003 214.166 65.0697 214.166 63.7827ZM272.15 76.5474H276.734L281.029 51.5731L281.295 50.077L281.536 51.5489L285.807 76.5474H290.368L294.639 41.4144H290.416L287.882 65.5925L287.737 67.0403L287.472 65.6166L283.201 41.4144H279.316L275.069 65.5925L274.804 67.0403L274.659 65.6407L272.125 41.4144H267.879L272.15 76.5474ZM298.741 63.2519V63.7827C298.741 65.6649 299.014 67.4103 299.561 69.0189C300.108 70.6276 300.896 72.0271 301.926 73.2175C302.939 74.4079 304.178 75.3409 305.642 76.0166C307.122 76.6922 308.787 77.03 310.637 77.03C312.471 77.03 314.119 76.6922 315.583 76.0166C317.047 75.3409 318.294 74.4079 319.323 73.2175C320.337 72.0271 321.117 70.6276 321.664 69.0189C322.211 67.4103 322.484 65.6649 322.484 63.7827V63.2519C322.484 61.3698 322.211 59.6244 321.664 58.0157C321.117 56.391 320.337 54.9834 319.323 53.793C318.294 52.6026 317.039 51.6696 315.559 50.9939C314.095 50.3022 312.438 49.9564 310.588 49.9564C308.755 49.9564 307.106 50.3022 305.642 50.9939C304.178 51.6696 302.939 52.6026 301.926 53.793C300.896 54.9834 300.108 56.391 299.561 58.0157C299.014 59.6244 298.741 61.3698 298.741 63.2519ZM303.205 63.7827V63.2519C303.205 61.9811 303.357 60.7665 303.663 59.6083C303.969 58.434 304.435 57.4044 305.063 56.5197C305.674 55.6349 306.438 54.9351 307.355 54.4204C308.272 53.8895 309.35 53.6241 310.588 53.6241C311.827 53.6241 312.905 53.8895 313.822 54.4204C314.755 54.9351 315.535 55.6349 316.162 56.5197C316.774 57.4044 317.232 58.434 317.538 59.6083C317.86 60.7665 318.02 61.9811 318.02 63.2519V63.7827C318.02 65.0697 317.868 66.3003 317.562 67.4746C317.256 68.6328 316.798 69.6543 316.187 70.5391C315.559 71.4239 314.779 72.1236 313.846 72.6384C312.929 73.1532 311.859 73.4105 310.637 73.4105C309.398 73.4105 308.312 73.1532 307.379 72.6384C306.446 72.1236 305.674 71.4239 305.063 70.5391C304.435 69.6543 303.969 68.6328 303.663 67.4746C303.357 66.3003 303.205 65.0697 303.205 63.7827ZM346.783 49.9564C344.885 49.9564 343.188 50.3746 341.692 51.2111C340.212 52.0315 338.941 53.1576 337.879 54.5893L337.855 53.9378L337.662 50.439H333.415V76.5474H337.903V59.8013C338.193 58.997 338.555 58.2731 338.989 57.6296C339.44 56.9701 339.962 56.4151 340.558 55.9647C341.217 55.4499 341.989 55.0638 342.874 54.8065C343.759 54.533 344.748 54.3962 345.842 54.3962C346.695 54.3962 347.507 54.4445 348.279 54.541C349.067 54.6215 349.896 54.7582 350.765 54.9512L351.368 50.5837C350.917 50.3907 350.242 50.2379 349.341 50.1253C348.456 50.0127 347.604 49.9564 346.783 49.9564ZM360.055 39.484V43.3689H368.934V72.6867H360.055V76.5474H381.916V72.6867H373.398V39.484H360.055ZM388.19 63.276V63.7827C388.19 65.6488 388.439 67.3942 388.938 69.0189C389.437 70.6276 390.136 72.0271 391.037 73.2175C391.938 74.4079 393.024 75.3409 394.295 76.0166C395.582 76.6922 397.013 77.03 398.59 77.03C400.198 77.03 401.606 76.7565 402.813 76.2096C404.019 75.6627 405.057 74.8583 405.925 73.7966L406.118 76.5474H410.22V39.484H405.756V53.0208C404.904 52.0235 403.89 51.2674 402.716 50.7526C401.558 50.2218 400.198 49.9564 398.638 49.9564C397.046 49.9564 395.606 50.2861 394.319 50.9457C393.032 51.6052 391.938 52.5222 391.037 53.6965C390.12 54.8708 389.412 56.2784 388.914 57.9192C388.431 59.5439 388.19 61.3296 388.19 63.276ZM392.654 63.7827V63.276C392.654 62.0052 392.791 60.7987 393.064 59.6565C393.338 58.4983 393.764 57.4768 394.343 56.5921C394.906 55.7234 395.63 55.0317 396.515 54.5169C397.416 54.0021 398.493 53.7447 399.748 53.7447C401.212 53.7447 402.435 54.0906 403.416 54.7823C404.397 55.458 405.177 56.3266 405.756 57.3883V69.5015C405.177 70.6437 404.397 71.5526 403.416 72.2282C402.435 72.9038 401.196 73.2416 399.7 73.2416C398.461 73.2416 397.399 72.9923 396.515 72.4936C395.63 71.9788 394.906 71.2871 394.343 70.4184C393.764 69.5498 393.338 68.5444 393.064 67.4022C392.791 66.2601 392.654 65.0536 392.654 63.7827Z" fill="#383838"/>
<path d="M3.06934 144.055V149.223H529.999V144.055M411.138 30.3614V26.4855H90.7295V30.3614" stroke="#383838" stroke-width="1.29197"/>
<path d="M2.87598 91.7299V97.5437H83.6241V91.7299M418.891 91.7299V97.5437H530V91.7299" stroke="#4438CA" stroke-width="1.29197"/>
<path d="M10.9705 113.697H4.99952V118.58H11.9357V120.066H3.18269V106.288H11.841V107.783H4.99952V112.212H10.9705V113.697ZM18.8718 111.398C18.6068 111.354 18.3198 111.332 18.0107 111.332C16.8626 111.332 16.0835 111.821 15.6734 112.798V120.066H13.9228V109.827H15.6261L15.6545 111.01C16.2286 110.095 17.0424 109.638 18.0959 109.638C18.4365 109.638 18.6952 109.682 18.8718 109.77V111.398ZM19.837 114.852C19.837 113.849 20.0326 112.947 20.4237 112.145C20.8211 111.344 21.3699 110.726 22.0702 110.291C22.7767 109.855 23.5811 109.638 24.4832 109.638C25.8773 109.638 27.0034 110.12 27.8613 111.086C28.7256 112.051 29.1577 113.335 29.1577 114.937V115.06C29.1577 116.057 28.9653 116.952 28.5805 117.747C28.202 118.536 27.6563 119.151 26.9435 119.593C26.2369 120.034 25.4231 120.255 24.5021 120.255C23.1142 120.255 21.9882 119.772 21.1239 118.807C20.266 117.842 19.837 116.564 19.837 114.975V114.852ZM21.5971 115.06C21.5971 116.195 21.8589 117.107 22.3825 117.795C22.9124 118.482 23.6189 118.826 24.5021 118.826C25.3916 118.826 26.0981 118.479 26.6217 117.785C27.1453 117.085 27.4071 116.107 27.4071 114.852C27.4071 113.729 27.139 112.82 26.6028 112.126C26.0729 111.426 25.3664 111.076 24.4832 111.076C23.6189 111.076 22.9218 111.42 22.3919 112.108C21.862 112.795 21.5971 113.779 21.5971 115.06ZM21.3699 107.092C21.3699 106.808 21.4551 106.572 21.6254 106.383C21.8021 106.187 22.0607 106.089 22.4014 106.089C22.742 106.089 23.0007 106.187 23.1773 106.383C23.354 106.572 23.4423 106.808 23.4423 107.092C23.4423 107.376 23.354 107.613 23.1773 107.802C23.0007 107.991 22.742 108.086 22.4014 108.086C22.0607 108.086 21.8021 107.991 21.6254 107.802C21.4551 107.613 21.3699 107.376 21.3699 107.092ZM25.4389 107.111C25.4389 106.827 25.5241 106.588 25.6944 106.392C25.871 106.197 26.1297 106.099 26.4703 106.099C26.811 106.099 27.0696 106.197 27.2463 106.392C27.4229 106.588 27.5112 106.827 27.5112 107.111C27.5112 107.395 27.4229 107.632 27.2463 107.821C27.0696 108.01 26.811 108.105 26.4703 108.105C26.1297 108.105 25.871 108.01 25.6944 107.821C25.5241 107.632 25.4389 107.395 25.4389 107.111ZM32.2142 120.066V111.18H30.5961V109.827H32.2142V108.777C32.2142 107.679 32.5075 106.831 33.0942 106.231C33.6809 105.632 34.5105 105.332 35.5829 105.332C35.9866 105.332 36.3872 105.386 36.7846 105.493L36.69 106.913C36.3935 106.856 36.0781 106.827 35.7438 106.827C35.176 106.827 34.7376 106.995 34.4284 107.329C34.1193 107.657 33.9648 108.13 33.9648 108.748V109.827H36.1506V111.18H33.9648V120.066H32.2142ZM38.9516 120.066V111.18H37.3335V109.827H38.9516V108.777C38.9516 107.679 39.2449 106.831 39.8316 106.231C40.4183 105.632 41.2479 105.332 42.3203 105.332C42.7241 105.332 43.1246 105.386 43.5221 105.493L43.4274 106.913C43.131 106.856 42.8155 106.827 42.4812 106.827C41.9134 106.827 41.475 106.995 41.1659 107.329C40.8568 107.657 40.7022 108.13 40.7022 108.748V109.827H42.8881V111.18H40.7022V120.066H38.9516ZM46.4839 109.827L46.5407 111.114C47.3229 110.13 48.3449 109.638 49.6066 109.638C51.7704 109.638 52.8617 110.858 52.8807 113.3V120.066H51.1301V113.29C51.1238 112.552 50.9534 112.007 50.6191 111.653C50.291 111.3 49.7769 111.123 49.0767 111.123C48.5089 111.123 48.0105 111.275 47.5816 111.578C47.1526 111.88 46.8182 112.278 46.5785 112.77V120.066H44.8279V109.827H46.4839ZM59.7695 120.255C58.3816 120.255 57.2524 119.801 56.3818 118.892C55.5113 117.978 55.076 116.757 55.076 115.23V114.909C55.076 113.893 55.2684 112.988 55.6532 112.193C56.0443 111.392 56.5869 110.767 57.2808 110.319C57.981 109.865 58.7381 109.638 59.5518 109.638C60.8829 109.638 61.9175 110.076 62.6556 110.953C63.3937 111.83 63.7627 113.085 63.7627 114.719V115.448H56.8266C56.8518 116.457 57.1452 117.274 57.7066 117.899C58.2744 118.517 58.9935 118.826 59.8641 118.826C60.4823 118.826 61.0059 118.7 61.4349 118.448C61.8639 118.195 62.2392 117.861 62.561 117.445L63.6303 118.277C62.7723 119.596 61.4854 120.255 59.7695 120.255ZM59.5518 111.076C58.8453 111.076 58.2523 111.335 57.7729 111.852C57.2934 112.363 56.9969 113.082 56.8834 114.01H62.0121V113.877C61.9617 112.988 61.7219 112.3 61.293 111.814C60.864 111.322 60.2836 111.076 59.5518 111.076ZM67.4532 109.827L67.51 111.114C68.2922 110.13 69.3142 109.638 70.5759 109.638C72.7397 109.638 73.831 110.858 73.8499 113.3V120.066H72.0994V113.29C72.093 112.552 71.9227 112.007 71.5884 111.653C71.2603 111.3 70.7462 111.123 70.046 111.123C69.4782 111.123 68.9798 111.275 68.5508 111.578C68.1219 111.88 67.7875 112.278 67.5478 112.77V120.066H65.7972V109.827H67.4532ZM76.0642 114.861C76.0642 113.29 76.4364 112.029 77.1808 111.076C77.9252 110.117 78.8999 109.638 80.1048 109.638C81.3034 109.638 82.2528 110.048 82.953 110.868V105.531H84.7036V120.066H83.095L83.0098 118.968C82.3096 119.826 81.3349 120.255 80.0859 120.255C78.8999 120.255 77.9315 119.769 77.1808 118.798C76.4364 117.826 76.0642 116.558 76.0642 114.994V114.861ZM77.8148 115.06C77.8148 116.221 78.0545 117.129 78.534 117.785C79.0134 118.441 79.6758 118.769 80.5211 118.769C81.6314 118.769 82.4421 118.271 82.953 117.274V112.571C82.4294 111.606 81.6251 111.123 80.5401 111.123C79.6821 111.123 79.0134 111.455 78.534 112.117C78.0545 112.779 77.8148 113.76 77.8148 115.06ZM91.6776 120.255C90.2898 120.255 89.1606 119.801 88.29 118.892C87.4194 117.978 86.9841 116.757 86.9841 115.23V114.909C86.9841 113.893 87.1765 112.988 87.5614 112.193C87.9525 111.392 88.495 110.767 89.1889 110.319C89.8892 109.865 90.6462 109.638 91.46 109.638C92.7911 109.638 93.8257 110.076 94.5637 110.953C95.3018 111.83 95.6709 113.085 95.6709 114.719V115.448H88.7347C88.76 116.457 89.0533 117.274 89.6148 117.899C90.1825 118.517 90.9017 118.826 91.7723 118.826C92.3905 118.826 92.9141 118.7 93.3431 118.448C93.772 118.195 94.1474 117.861 94.4691 117.445L95.5384 118.277C94.6804 119.596 93.3935 120.255 91.6776 120.255ZM91.46 111.076C90.7534 111.076 90.1604 111.335 89.681 111.852C89.2016 112.363 88.9051 113.082 88.7915 114.01H93.9203V113.877C93.8698 112.988 93.6301 112.3 93.2011 111.814C92.7721 111.322 92.1918 111.076 91.46 111.076ZM102.654 111.398C102.389 111.354 102.102 111.332 101.793 111.332C100.645 111.332 99.866 111.821 99.4559 112.798V120.066H97.7054V109.827H99.4086L99.437 111.01C100.011 110.095 100.825 109.638 101.878 109.638C102.219 109.638 102.478 109.682 102.654 109.77V111.398ZM118.495 107.783H114.066V120.066H112.259V107.783H107.84V106.288H118.495V107.783ZM125.507 120.066C125.406 119.864 125.324 119.504 125.261 118.987C124.447 119.832 123.475 120.255 122.346 120.255C121.337 120.255 120.507 119.971 119.857 119.403C119.214 118.829 118.892 118.104 118.892 117.227C118.892 116.161 119.296 115.334 120.104 114.748C120.917 114.155 122.059 113.858 123.529 113.858H125.232V113.054C125.232 112.442 125.049 111.956 124.683 111.597C124.318 111.231 123.778 111.048 123.065 111.048C122.441 111.048 121.917 111.205 121.495 111.521C121.072 111.836 120.861 112.218 120.861 112.666H119.1C119.1 112.155 119.28 111.663 119.64 111.19C120.006 110.71 120.498 110.332 121.116 110.054C121.741 109.777 122.425 109.638 123.169 109.638C124.349 109.638 125.273 109.934 125.942 110.527C126.611 111.114 126.958 111.925 126.983 112.959V117.672C126.983 118.612 127.103 119.359 127.342 119.914V120.066H125.507ZM122.602 118.731C123.15 118.731 123.671 118.589 124.163 118.306C124.655 118.022 125.011 117.653 125.232 117.198V115.098H123.86C121.715 115.098 120.643 115.725 120.643 116.981C120.643 117.53 120.826 117.959 121.192 118.268C121.558 118.577 122.028 118.731 122.602 118.731ZM129.311 114.861C129.311 113.265 129.68 111.997 130.418 111.057C131.156 110.111 132.134 109.638 133.351 109.638C134.6 109.638 135.575 110.079 136.275 110.963L136.36 109.827H137.96V119.82C137.96 121.144 137.565 122.188 136.777 122.952C135.994 123.715 134.941 124.097 133.616 124.097C132.878 124.097 132.156 123.939 131.449 123.624C130.743 123.308 130.203 122.876 129.831 122.327L130.74 121.277C131.49 122.204 132.408 122.668 133.493 122.668C134.345 122.668 135.007 122.428 135.48 121.949C135.96 121.469 136.2 120.794 136.2 119.924V119.044C135.499 119.851 134.544 120.255 133.332 120.255C132.134 120.255 131.162 119.772 130.418 118.807C129.68 117.842 129.311 116.527 129.311 114.861ZM131.071 115.06C131.071 116.214 131.307 117.123 131.78 117.785C132.254 118.441 132.916 118.769 133.768 118.769C134.872 118.769 135.682 118.268 136.2 117.265V112.59C135.663 111.612 134.859 111.123 133.787 111.123C132.935 111.123 132.269 111.455 131.79 112.117C131.31 112.779 131.071 113.76 131.071 115.06Z" fill="#4438CA"/>
<path d="M94.278 18H92.4612V4.22235H94.278V18ZM98.9904 7.76139L99.0472 9.04831C99.8294 8.06419 100.851 7.57213 102.113 7.57213C104.277 7.57213 105.368 8.79282 105.387 11.2342V18H103.637V11.2247C103.63 10.4866 103.46 9.94096 103.126 9.58768C102.798 9.23441 102.283 9.05777 101.583 9.05777C101.015 9.05777 100.517 9.20917 100.088 9.51198C99.6591 9.81479 99.3248 10.2122 99.085 10.7043V18H97.3344V7.76139H98.9904ZM109.778 9.001C110.554 8.04842 111.563 7.57213 112.806 7.57213C114.97 7.57213 116.061 8.79282 116.08 11.2342V18H114.329V11.2247C114.323 10.4866 114.153 9.94096 113.818 9.58768C113.49 9.23441 112.976 9.05777 112.276 9.05777C111.708 9.05777 111.21 9.20917 110.781 9.51198C110.352 9.81479 110.018 10.2122 109.778 10.7043V18H108.027V3.46533H109.778V9.001ZM125.022 18C124.921 17.7981 124.839 17.4385 124.776 16.9213C123.962 17.7666 122.991 18.1893 121.862 18.1893C120.852 18.1893 120.023 17.9054 119.373 17.3376C118.73 16.7635 118.408 16.0381 118.408 15.1612C118.408 14.0951 118.812 13.2687 119.619 12.682C120.433 12.089 121.575 11.7925 123.045 11.7925H124.748V10.9882C124.748 10.3762 124.565 9.89049 124.199 9.53091C123.833 9.16502 123.294 8.98207 122.581 8.98207C121.956 8.98207 121.433 9.13978 121.01 9.4552C120.587 9.77063 120.376 10.1523 120.376 10.6002H118.616C118.616 10.0892 118.796 9.59714 119.155 9.12401C119.521 8.64457 120.013 8.26606 120.632 7.98849C121.256 7.71092 121.941 7.57213 122.685 7.57213C123.865 7.57213 124.789 7.86863 125.458 8.46162C126.126 9.04831 126.473 9.85895 126.498 10.8935V15.6059C126.498 16.5459 126.618 17.2935 126.858 17.8486V18H125.022ZM122.117 16.6658C122.666 16.6658 123.186 16.5238 123.679 16.2399C124.171 15.9561 124.527 15.587 124.748 15.1328V13.0321H123.376C121.231 13.0321 120.158 13.6598 120.158 14.9152C120.158 15.464 120.341 15.893 120.707 16.2021C121.073 16.5112 121.543 16.6658 122.117 16.6658ZM131.145 18H129.394V3.46533H131.145V18ZM136.33 5.28216V7.76139H138.242V9.11455H136.33V15.464C136.33 15.8741 136.415 16.1832 136.586 16.3913C136.756 16.5932 137.046 16.6942 137.456 16.6942C137.658 16.6942 137.936 16.6563 138.289 16.5806V18C137.828 18.1262 137.38 18.1893 136.945 18.1893C136.163 18.1893 135.573 17.9527 135.176 17.4796C134.778 17.0064 134.58 16.3346 134.58 15.464V9.11455H132.715V7.76139H134.58V5.28216H136.33Z" fill="#383838"/>
<path d="M10.9563 165.632H4.98536V170.514H11.9215V172H3.16853V158.222H11.8269V159.717H4.98536V164.146H10.9563V165.632ZM15.8107 172H14.0601V157.465H15.8107V172ZM22.8698 172.189C21.482 172.189 20.3527 171.735 19.4822 170.827C18.6116 169.912 18.1763 168.691 18.1763 167.165V166.843C18.1763 165.827 18.3687 164.922 18.7536 164.127C19.1447 163.326 19.6872 162.701 20.3811 162.253C21.0814 161.799 21.8384 161.572 22.6522 161.572C23.9833 161.572 25.0178 162.011 25.7559 162.887C26.494 163.764 26.8631 165.02 26.8631 166.654V167.382H19.9269C19.9522 168.392 20.2455 169.209 20.807 169.833C21.3747 170.451 22.0939 170.76 22.9644 170.76C23.5827 170.76 24.1063 170.634 24.5352 170.382C24.9642 170.13 25.3396 169.795 25.6613 169.379L26.7306 170.212C25.8726 171.53 24.5857 172.189 22.8698 172.189ZM22.6522 163.01C21.9456 163.01 21.3526 163.269 20.8732 163.786C20.3938 164.297 20.0973 165.017 19.9837 165.944H25.1125V165.811C25.062 164.922 24.8223 164.234 24.3933 163.749C23.9643 163.256 23.384 163.01 22.6522 163.01ZM30.544 161.761L30.5914 162.897C31.3421 162.014 32.3546 161.572 33.6289 161.572C35.0609 161.572 36.0356 162.121 36.5528 163.219C36.8935 162.727 37.3351 162.329 37.8776 162.026C38.4265 161.724 39.0731 161.572 39.8175 161.572C42.0633 161.572 43.2051 162.761 43.243 165.14V172H41.4924V165.244C41.4924 164.512 41.3252 163.966 40.9908 163.607C40.6565 163.241 40.095 163.058 39.3065 163.058C38.6567 163.058 38.1173 163.253 37.6884 163.644C37.2594 164.029 37.0102 164.55 36.9408 165.206V172H35.1808V165.291C35.1808 163.802 34.4521 163.058 32.9949 163.058C31.8467 163.058 31.0613 163.547 30.6387 164.524V172H28.8881V161.761H30.544ZM50.1412 172.189C48.7534 172.189 47.6242 171.735 46.7536 170.827C45.883 169.912 45.4478 168.691 45.4478 167.165V166.843C45.4478 165.827 45.6402 164.922 46.025 164.127C46.4161 163.326 46.9586 162.701 47.6526 162.253C48.3528 161.799 49.1098 161.572 49.9236 161.572C51.2547 161.572 52.2893 162.011 53.0274 162.887C53.7655 163.764 54.1345 165.02 54.1345 166.654V167.382H47.1984C47.2236 168.392 47.5169 169.209 48.0784 169.833C48.6461 170.451 49.3653 170.76 50.2359 170.76C50.8541 170.76 51.3777 170.634 51.8067 170.382C52.2357 170.13 52.611 169.795 52.9327 169.379L54.002 170.212C53.1441 171.53 51.8571 172.189 50.1412 172.189ZM49.9236 163.01C49.2171 163.01 48.6241 163.269 48.1446 163.786C47.6652 164.297 47.3687 165.017 47.2551 165.944H52.3839V165.811C52.3334 164.922 52.0937 164.234 51.6647 163.749C51.2358 163.256 50.6554 163.01 49.9236 163.01ZM57.8249 161.761L57.8817 163.048C58.664 162.064 59.6859 161.572 60.9476 161.572C63.1114 161.572 64.2028 162.793 64.2217 165.234V172H62.4711V165.225C62.4648 164.487 62.2945 163.941 61.9601 163.588C61.6321 163.234 61.1179 163.058 60.4177 163.058C59.85 163.058 59.3516 163.209 58.9226 163.512C58.4936 163.815 58.1593 164.212 57.9196 164.704V172H56.169V161.761H57.8249ZM69.2369 159.282V161.761H71.1484V163.115H69.2369V169.464C69.2369 169.874 69.3221 170.183 69.4924 170.391C69.6627 170.593 69.9529 170.694 70.363 170.694C70.5649 170.694 70.8424 170.656 71.1957 170.581V172C70.7352 172.126 70.2873 172.189 69.852 172.189C69.0698 172.189 68.4799 171.953 68.0825 171.48C67.685 171.006 67.4863 170.335 67.4863 169.464V163.115H65.6222V161.761H67.4863V159.282H69.2369Z" fill="#383838"/>
<path d="M424.549 113.924C422.991 113.476 421.856 112.928 421.143 112.278C420.436 111.622 420.083 110.814 420.083 109.855C420.083 108.77 420.515 107.875 421.379 107.168C422.25 106.455 423.379 106.099 424.767 106.099C425.713 106.099 426.555 106.282 427.293 106.648C428.038 107.013 428.612 107.518 429.016 108.162C429.426 108.805 429.631 109.508 429.631 110.272H427.804C427.804 109.439 427.54 108.786 427.01 108.313C426.48 107.834 425.732 107.594 424.767 107.594C423.871 107.594 423.171 107.793 422.666 108.19C422.168 108.581 421.919 109.127 421.919 109.827C421.919 110.389 422.155 110.865 422.628 111.256C423.108 111.641 423.918 111.994 425.06 112.316C426.208 112.637 427.104 112.994 427.748 113.385C428.397 113.77 428.877 114.221 429.186 114.738C429.501 115.255 429.659 115.864 429.659 116.564C429.659 117.681 429.224 118.577 428.353 119.252C427.483 119.921 426.319 120.255 424.862 120.255C423.915 120.255 423.032 120.075 422.212 119.716C421.392 119.35 420.758 118.851 420.31 118.22C419.868 117.59 419.648 116.874 419.648 116.072H421.474C421.474 116.905 421.78 117.564 422.392 118.05C423.01 118.53 423.833 118.769 424.862 118.769C425.82 118.769 426.555 118.574 427.066 118.183C427.577 117.791 427.833 117.258 427.833 116.583C427.833 115.908 427.596 115.388 427.123 115.022C426.65 114.65 425.792 114.284 424.549 113.924ZM435.829 118.826C436.453 118.826 436.999 118.637 437.466 118.258C437.933 117.88 438.191 117.407 438.242 116.839H439.898C439.866 117.426 439.664 117.984 439.292 118.514C438.92 119.044 438.422 119.466 437.797 119.782C437.179 120.097 436.523 120.255 435.829 120.255C434.435 120.255 433.324 119.791 432.498 118.864C431.678 117.93 431.268 116.656 431.268 115.041V114.748C431.268 113.751 431.451 112.865 431.817 112.089C432.183 111.313 432.706 110.71 433.387 110.281C434.075 109.852 434.886 109.638 435.819 109.638C436.967 109.638 437.92 109.982 438.677 110.669C439.44 111.357 439.847 112.25 439.898 113.347H438.242C438.191 112.685 437.939 112.142 437.485 111.72C437.037 111.291 436.482 111.076 435.819 111.076C434.93 111.076 434.239 111.398 433.747 112.041C433.261 112.678 433.018 113.603 433.018 114.814V115.145C433.018 116.325 433.261 117.233 433.747 117.87C434.233 118.507 434.927 118.826 435.829 118.826ZM443.617 111.067C444.393 110.114 445.402 109.638 446.645 109.638C448.808 109.638 449.9 110.858 449.919 113.3V120.066H448.168V113.29C448.162 112.552 447.992 112.007 447.657 111.653C447.329 111.3 446.815 111.123 446.115 111.123C445.547 111.123 445.049 111.275 444.62 111.578C444.191 111.88 443.856 112.278 443.617 112.77V120.066H441.866V105.531H443.617V111.067ZM454.442 120.066H452.691V105.531H454.442V120.066ZM459.154 120.066H457.404V109.827H459.154V120.066ZM457.262 107.111C457.262 106.827 457.347 106.588 457.517 106.392C457.694 106.197 457.953 106.099 458.293 106.099C458.634 106.099 458.893 106.197 459.069 106.392C459.246 106.588 459.334 106.827 459.334 107.111C459.334 107.395 459.246 107.632 459.069 107.821C458.893 108.01 458.634 108.105 458.293 108.105C457.953 108.105 457.694 108.01 457.517 107.821C457.347 107.632 457.262 107.395 457.262 107.111ZM466.213 120.255C464.826 120.255 463.696 119.801 462.826 118.892C461.955 117.978 461.52 116.757 461.52 115.23V114.909C461.52 113.893 461.712 112.988 462.097 112.193C462.488 111.392 463.031 110.767 463.725 110.319C464.425 109.865 465.182 109.638 465.996 109.638C467.327 109.638 468.361 110.076 469.1 110.953C469.838 111.83 470.207 113.085 470.207 114.719V115.448H463.271C463.296 116.457 463.589 117.274 464.151 117.899C464.718 118.517 465.438 118.826 466.308 118.826C466.926 118.826 467.45 118.7 467.879 118.448C468.308 118.195 468.683 117.861 469.005 117.445L470.074 118.277C469.216 119.596 467.929 120.255 466.213 120.255ZM465.996 111.076C465.289 111.076 464.696 111.335 464.217 111.852C463.737 112.363 463.441 113.082 463.327 114.01H468.456V113.877C468.406 112.988 468.166 112.3 467.737 111.814C467.308 111.322 466.728 111.076 465.996 111.076ZM478.203 117.35C478.203 116.877 478.023 116.511 477.663 116.252C477.31 115.987 476.689 115.76 475.799 115.571C474.916 115.382 474.213 115.155 473.689 114.89C473.172 114.625 472.787 114.309 472.535 113.943C472.289 113.577 472.165 113.142 472.165 112.637C472.165 111.798 472.519 111.089 473.225 110.508C473.938 109.928 474.847 109.638 475.951 109.638C477.111 109.638 478.051 109.937 478.77 110.537C479.496 111.136 479.859 111.903 479.859 112.836H478.099C478.099 112.357 477.894 111.944 477.484 111.597C477.08 111.25 476.569 111.076 475.951 111.076C475.313 111.076 474.815 111.215 474.455 111.492C474.096 111.77 473.916 112.133 473.916 112.581C473.916 113.003 474.083 113.322 474.418 113.536C474.752 113.751 475.354 113.956 476.225 114.152C477.102 114.347 477.812 114.58 478.354 114.852C478.897 115.123 479.297 115.451 479.556 115.836C479.821 116.214 479.953 116.678 479.953 117.227C479.953 118.142 479.587 118.877 478.856 119.432C478.124 119.981 477.174 120.255 476.007 120.255C475.187 120.255 474.462 120.11 473.831 119.82C473.2 119.529 472.705 119.126 472.345 118.608C471.992 118.085 471.815 117.52 471.815 116.915H473.566C473.598 117.501 473.831 117.968 474.266 118.315C474.708 118.656 475.288 118.826 476.007 118.826C476.67 118.826 477.2 118.694 477.597 118.429C478.001 118.157 478.203 117.798 478.203 117.35ZM488.195 117.35C488.195 116.877 488.015 116.511 487.656 116.252C487.303 115.987 486.681 115.76 485.792 115.571C484.909 115.382 484.205 115.155 483.682 114.89C483.164 114.625 482.779 114.309 482.527 113.943C482.281 113.577 482.158 113.142 482.158 112.637C482.158 111.798 482.511 111.089 483.218 110.508C483.931 109.928 484.839 109.638 485.943 109.638C487.104 109.638 488.044 109.937 488.763 110.537C489.488 111.136 489.851 111.903 489.851 112.836H488.091C488.091 112.357 487.886 111.944 487.476 111.597C487.072 111.25 486.561 111.076 485.943 111.076C485.306 111.076 484.808 111.215 484.448 111.492C484.088 111.77 483.909 112.133 483.909 112.581C483.909 113.003 484.076 113.322 484.41 113.536C484.745 113.751 485.347 113.956 486.218 114.152C487.094 114.347 487.804 114.58 488.347 114.852C488.889 115.123 489.29 115.451 489.548 115.836C489.813 116.214 489.946 116.678 489.946 117.227C489.946 118.142 489.58 118.877 488.848 119.432C488.116 119.981 487.167 120.255 486 120.255C485.18 120.255 484.454 120.11 483.824 119.82C483.193 119.529 482.697 119.126 482.338 118.608C481.985 118.085 481.808 117.52 481.808 116.915H483.559C483.59 117.501 483.824 117.968 484.259 118.315C484.7 118.656 485.281 118.826 486 118.826C486.662 118.826 487.192 118.694 487.59 118.429C487.993 118.157 488.195 117.798 488.195 117.35ZM496.475 120.255C495.087 120.255 493.958 119.801 493.087 118.892C492.217 117.978 491.782 116.757 491.782 115.23V114.909C491.782 113.893 491.974 112.988 492.359 112.193C492.75 111.392 493.292 110.767 493.986 110.319C494.687 109.865 495.444 109.638 496.257 109.638C497.589 109.638 498.623 110.076 499.361 110.953C500.099 111.83 500.468 113.085 500.468 114.719V115.448H493.532C493.557 116.457 493.851 117.274 494.412 117.899C494.98 118.517 495.699 118.826 496.57 118.826C497.188 118.826 497.712 118.7 498.141 118.448C498.57 118.195 498.945 117.861 499.267 117.445L500.336 118.277C499.478 119.596 498.191 120.255 496.475 120.255ZM496.257 111.076C495.551 111.076 494.958 111.335 494.478 111.852C493.999 112.363 493.703 113.082 493.589 114.01H498.718V113.877C498.667 112.988 498.428 112.3 497.999 111.814C497.57 111.322 496.989 111.076 496.257 111.076ZM504.159 109.827L504.216 111.114C504.998 110.13 506.02 109.638 507.281 109.638C509.445 109.638 510.537 110.858 510.556 113.3V120.066H508.805V113.29C508.799 112.552 508.628 112.007 508.294 111.653C507.966 111.3 507.452 111.123 506.752 111.123C506.184 111.123 505.685 111.275 505.256 111.578C504.827 111.88 504.493 112.278 504.253 112.77V120.066H502.503V109.827H504.159ZM512.77 114.861C512.77 113.29 513.142 112.029 513.886 111.076C514.631 110.117 515.605 109.638 516.81 109.638C518.009 109.638 518.958 110.048 519.659 110.868V105.531H521.409V120.066H519.801L519.715 118.968C519.015 119.826 518.041 120.255 516.791 120.255C515.605 120.255 514.637 119.769 513.886 118.798C513.142 117.826 512.77 116.558 512.77 114.994V114.861ZM514.52 115.06C514.52 116.221 514.76 117.129 515.24 117.785C515.719 118.441 516.381 118.769 517.227 118.769C518.337 118.769 519.148 118.271 519.659 117.274V112.571C519.135 111.606 518.331 111.123 517.246 111.123C516.388 111.123 515.719 111.455 515.24 112.117C514.76 112.779 514.52 113.76 514.52 115.06ZM528.383 120.255C526.995 120.255 525.866 119.801 524.996 118.892C524.125 117.978 523.69 116.757 523.69 115.23V114.909C523.69 113.893 523.882 112.988 524.267 112.193C524.658 111.392 525.201 110.767 525.895 110.319C526.595 109.865 527.352 109.638 528.166 109.638C529.497 109.638 530.531 110.076 531.269 110.953C532.007 111.83 532.376 113.085 532.376 114.719V115.448H525.44C525.466 116.457 525.759 117.274 526.32 117.899C526.888 118.517 527.607 118.826 528.478 118.826C529.096 118.826 529.62 118.7 530.049 118.448C530.478 118.195 530.853 117.861 531.175 117.445L532.244 118.277C531.386 119.596 530.099 120.255 528.383 120.255ZM528.166 111.076C527.459 111.076 526.866 111.335 526.387 111.852C525.907 112.363 525.611 113.082 525.497 114.01H530.626V113.877C530.575 112.988 530.336 112.3 529.907 111.814C529.478 111.322 528.897 111.076 528.166 111.076ZM539.36 111.398C539.095 111.354 538.808 111.332 538.499 111.332C537.351 111.332 536.572 111.821 536.162 112.798V120.066H534.411V109.827H536.114L536.143 111.01C536.717 110.095 537.53 109.638 538.584 109.638C538.925 109.638 539.183 109.682 539.36 109.77V111.398ZM555.2 107.783H550.772V120.066H548.965V107.783H544.545V106.288H555.2V107.783ZM562.212 120.066C562.111 119.864 562.029 119.504 561.966 118.987C561.152 119.832 560.181 120.255 559.052 120.255C558.042 120.255 557.213 119.971 556.563 119.403C555.92 118.829 555.598 118.104 555.598 117.227C555.598 116.161 556.002 115.334 556.809 114.748C557.623 114.155 558.765 113.858 560.235 113.858H561.938V113.054C561.938 112.442 561.755 111.956 561.389 111.597C561.023 111.231 560.484 111.048 559.771 111.048C559.146 111.048 558.623 111.205 558.2 111.521C557.777 111.836 557.566 112.218 557.566 112.666H555.806C555.806 112.155 555.986 111.663 556.345 111.19C556.711 110.71 557.203 110.332 557.822 110.054C558.446 109.777 559.131 109.638 559.875 109.638C561.055 109.638 561.979 109.934 562.648 110.527C563.316 111.114 563.663 111.925 563.688 112.959V117.672C563.688 118.612 563.808 119.359 564.048 119.914V120.066H562.212ZM559.307 118.731C559.856 118.731 560.377 118.589 560.869 118.306C561.361 118.022 561.717 117.653 561.938 117.198V115.098H560.566C558.421 115.098 557.348 115.725 557.348 116.981C557.348 117.53 557.531 117.959 557.897 118.268C558.263 118.577 558.733 118.731 559.307 118.731ZM566.016 114.861C566.016 113.265 566.385 111.997 567.123 111.057C567.862 110.111 568.839 109.638 570.057 109.638C571.306 109.638 572.281 110.079 572.981 110.963L573.066 109.827H574.665V119.82C574.665 121.144 574.271 122.188 573.482 122.952C572.7 123.715 571.647 124.097 570.322 124.097C569.584 124.097 568.861 123.939 568.155 123.624C567.448 123.308 566.909 122.876 566.537 122.327L567.445 121.277C568.196 122.204 569.114 122.668 570.199 122.668C571.05 122.668 571.713 122.428 572.186 121.949C572.665 121.469 572.905 120.794 572.905 119.924V119.044C572.205 119.851 571.249 120.255 570.038 120.255C568.839 120.255 567.868 119.772 567.123 118.807C566.385 117.842 566.016 116.527 566.016 114.861ZM567.776 115.06C567.776 116.214 568.013 117.123 568.486 117.785C568.959 118.441 569.622 118.769 570.473 118.769C571.577 118.769 572.388 118.268 572.905 117.265V112.59C572.369 111.612 571.565 111.123 570.492 111.123C569.641 111.123 568.975 111.455 568.496 112.117C568.016 112.779 567.776 113.76 567.776 115.06Z" fill="#4438CA"/>
</g>
<defs>
<clipPath id="clip0">
<rect width="576" height="177" fill="white"/>
</clipPath>
</defs>
</svg>
